<svg width="330" height="329" viewBox="0 0 330 329" fill="none" xmlns="http://www.w3.org/2000/svg">
<path d="M127.957 271.036C150.246 277.671 176.686 270.167 204.78 261.246C232.957 252.455 262.789 242.247 280.87 220.163C299.034 198.209 305.531 164.509 293.62 140.323C281.709 116.138 251.473 101.597 225.479 84.5423C199.614 67.4045 178.074 47.8819 154.366 45.6174C130.788 43.2703 105.125 58.3112 81.079 77.6171C57.0328 96.923 34.7336 120.411 33.0829 145.372C31.3023 170.415 50.2176 196.717 68.7677 220.148C87.4005 243.71 105.668 264.401 127.957 271.036Z" fill="url(#paint0_linear)"/>
<defs>
<linearGradient id="paint0_linear" x1="136.808" y1="54.3487" x2="111.508" y2="277.365" gradientUnits="userSpaceOnUse">
<stop offset="0.15625" stop-color="#FACFC6"/>
<stop offset="1" stop-color="#FF84B5"/>
</linearGradient>
</defs>
</svg>
