<svg width="439" height="403" viewBox="0 0 439 403" fill="none" xmlns="http://www.w3.org/2000/svg">
<path d="M77.7462 42.3553C109.299 15.9597 157.503 9.61978 209.386 4.42212C261.312 -1.04455 316.919 -5.36898 361.763 17.83C406.65 40.76 440.819 90.9444 438.421 138.574C436.022 186.203 397.101 231.009 366.831 276.926C336.83 322.887 315.525 369.69 278.604 389.982C241.953 410.316 189.73 403.87 137.145 389.363C84.5592 374.856 31.8803 352.332 11.7082 312.947C-8.7329 273.519 3.55859 217.543 17.2685 166.485C31.0217 115.159 46.1932 68.7508 77.7462 42.3553Z" fill="url(#paint0_linear)"/>
<defs>
<linearGradient id="paint0_linear" x1="217.868" y1="404.063" x2="277.956" y2="-9.77694" gradientUnits="userSpaceOnUse">
<stop stop-color="#3998FC"/>
<stop offset="1" stop-color="#987EFB"/>
</linearGradient>
</defs>
</svg>
