<svg width="720" height="698" viewBox="0 0 720 698" fill="none" xmlns="http://www.w3.org/2000/svg">
<path d="M449.967 609.376C399.129 625.494 338.137 609.393 273.286 590.114C208.252 571.136 139.36 548.98 96.8938 499.135C54.2437 449.59 37.8362 372.657 64.0832 316.762C90.3303 260.867 159.048 226.312 217.923 186.171C276.496 145.846 325.041 100.236 379.33 94.0721C433.316 87.7241 492.861 121.123 548.887 164.359C604.913 207.595 657.118 260.484 662.018 317.595C667.22 374.891 624.998 435.923 583.486 490.365C541.79 545.108 500.804 593.259 449.967 609.376Z" fill="url(#paint0_linear)"/>
<defs>
<linearGradient id="paint0_linear" x1="355.642" y1="98.9435" x2="357.727" y2="616.979" gradientUnits="userSpaceOnUse">
<stop stop-color="#FFD2FD"/>
<stop offset="1" stop-color="#9F63F3"/>
</linearGradient>
</defs>
</svg>
