<svg width="213" height="192" viewBox="0 0 213 192" fill="none" xmlns="http://www.w3.org/2000/svg">
<path d="M65.6383 6.81906C47.7156 16.0149 35.6623 36.5455 23.4223 58.9535C11.0527 81.3297 -1.5037 105.583 0.40575 130.233C2.18564 154.851 18.3018 179.833 40.2401 187.836C62.1783 195.838 89.8092 186.831 116.291 181.937C142.742 177.173 167.914 176.491 184.108 163.71C200.269 151.059 207.322 126.277 210.81 99.7939C214.297 73.3109 214.186 45.2566 200.271 28.6469C186.388 11.9077 158.798 6.77464 133.156 3.21943C107.385 -0.367635 83.5609 -2.37682 65.6383 6.81906Z" fill="url(#paint0_linear)"/>
<defs>
<linearGradient id="paint0_linear" x1="196.874" y1="35.0984" x2="6.69531" y2="155.266" gradientUnits="userSpaceOnUse">
<stop stop-color="#6355FA"/>
<stop offset="1" stop-color="#A084FB"/>
</linearGradient>
</defs>
</svg>
