<svg width="24" height="24" viewBox="0 0 24 24" fill="none" xmlns="http://www.w3.org/2000/svg">
<path fill-rule="evenodd" clip-rule="evenodd" d="M8.80038 20.3495L5.31199 21.0095C4.22667 21.2148 3.18039 20.5014 2.97506 19.4161C2.92858 19.1704 2.92858 18.9182 2.97506 18.6725L3.63503 15.1842C3.70975 14.7892 3.90173 14.4259 4.18595 14.1417L15.9033 2.42442C16.512 1.8157 17.4419 1.66479 18.2119 2.04978L18.9814 2.43455C20.093 2.99031 20.9942 3.89158 21.55 5.00309L21.9348 5.77263C22.3197 6.54261 22.1688 7.47255 21.5601 8.08128L9.84281 19.7986C9.55859 20.0828 9.19532 20.2748 8.80038 20.3495ZM8.18068 18.4313L8.4286 18.3844L16.7665 10.0465L13.938 7.21807L5.60017 15.5559L5.55326 15.8039L8.18068 18.4313ZM20.1459 6.66706L18.1807 8.63228L15.3523 5.80386L17.3175 3.83863L18.087 4.22341C18.8115 4.58563 19.3989 5.17306 19.7611 5.89751L20.1459 6.66706Z" fill="#BD94FF"/>
<mask id="mask0" mask-type="alpha" maskUnits="userSpaceOnUse" x="2" y="1" width="21" height="21">
<path fill-rule="evenodd" clip-rule="evenodd" d="M8.80038 20.3495L5.31199 21.0095C4.22667 21.2148 3.18039 20.5014 2.97506 19.4161C2.92858 19.1704 2.92858 18.9182 2.97506 18.6725L3.63503 15.1842C3.70975 14.7892 3.90173 14.4259 4.18595 14.1417L15.9033 2.42442C16.512 1.8157 17.4419 1.66479 18.2119 2.04978L18.9814 2.43455C20.093 2.99031 20.9942 3.89158 21.55 5.00309L21.9348 5.77263C22.3197 6.54261 22.1688 7.47255 21.5601 8.08128L9.84281 19.7986C9.55859 20.0828 9.19532 20.2748 8.80038 20.3495ZM8.18068 18.4313L8.4286 18.3844L16.7665 10.0465L13.938 7.21807L5.60017 15.5559L5.55326 15.8039L8.18068 18.4313ZM20.1459 6.66706L18.1807 8.63228L15.3523 5.80386L17.3175 3.83863L18.087 4.22341C18.8115 4.58563 19.3989 5.17306 19.7611 5.89751L20.1459 6.66706Z" fill="white"/>
</mask>
<g mask="url(#mask0)">
<rect width="24" height="24" fill="white"/>
</g>
</svg>
