<svg width="24" height="24" viewBox="0 0 24 24" fill="none" xmlns="http://www.w3.org/2000/svg">
<path d="M9.4125 9.375L7.9125 8.8875V13.6125C7.9125 14.8125 8.7 15.9 9.825 16.275L13.1625 17.4V15.9L10.425 15C9.825 14.8125 9.4125 14.2125 9.4125 13.575V9.375Z" fill="white"/>
<path d="M4.875 7.875L3.45 7.3875C3.4125 7.3875 3.375 7.3875 3.375 7.425V16.575C3.375 17.775 4.1625 18.8625 5.2875 19.2375L13.05 21.825C13.0875 21.825 13.125 21.825 13.125 21.7875V20.4C13.125 20.3625 13.125 20.3625 13.0875 20.3625L5.8875 17.9625C5.2875 17.775 4.875 17.175 4.875 16.5375V7.9125C4.9125 7.9125 4.9125 7.875 4.875 7.875Z" fill="white"/>
<path d="M4.8 4.0875L3.4125 5.1375L14.4 8.8125C15 9 15.4125 9.6 15.4125 10.2375V22.7625L16.9125 21.6375V10.1625C16.9125 8.9625 16.125 7.875 15 7.5L4.8 4.0875Z" fill="white"/>
<path d="M8.25 1.5L6.8625 2.55L18.1125 6.3C18.7125 6.4875 19.125 7.0875 19.125 7.725V19.95L20.625 18.825V7.65C20.625 6.45 19.8375 5.3625 18.7125 4.9875L8.25 1.5Z" fill="white"/>
</svg>
